<!DOCTYPE svg PUBLIC "-//W3C//DTD SVG 1.1//EN" "http://www.w3.org/Graphics/SVG/1.1/DTD/svg11.dtd">
<!-- Uploaded to: SVG Repo, www.svgrepo.com, Transformed by: SVG Repo Mixer Tools -->
<svg fill="#de4d4b" width="800px" height="800px" viewBox="-50 -50 200.00 200.00" version="1.1" xml:space="preserve" xmlns="http://www.w3.org/2000/svg" xmlns:xlink="http://www.w3.org/1999/xlink" stroke="#de4d4b" transform="matrix(-1, 0, 0, 1, 0, 0)">
<g id="SVGRepo_bgCarrier" stroke-width="0"/>
<g id="SVGRepo_tracerCarrier" stroke-linecap="round" stroke-linejoin="round"/>
<g id="SVGRepo_iconCarrier"> <style type="text/css"> .st0{display:none;} .st1{display:inline;fill:none;} </style> <g class="st0" id="bounding_squares"> <rect class="st1" height="100" id="XMLID_22_" width="100"/> </g> <g id="icons"> <path d="M87.5,73H69.578125L54.7695313,58.1914063l-3.3776245-6.755188l3.1471558-3.1471558 c0.78125-0.78125,0.78125-2.046875,0-2.828125L42.2695313,33.1914063l-0.4071045-0.81427 C45.9754028,30.6622925,48.875,26.6022949,48.875,21.875c0-6.2724609-5.1025391-11.375-11.375-11.375 s-11.375,5.1025391-11.375,11.375S31.2275391,33.25,37.5,33.25c0.1073608,0,0.2114258-0.0131226,0.3181152-0.0161133 l0.373291,0.746582L27.296875,44.875H12.5c-1.1044922,0-2,0.8955078-2,2s0.8955078,2,2,2h15.625 c0.5302734,0,1.0390625-0.2109375,1.4140625-0.5859375l10.5377808-10.5377808l6.447876,12.895874l-7.3137817,7.3137817 c-0.78125,0.78125-0.78125,2.046875,0,2.828125C39.6015625,61.1796875,40.1132813,61.375,40.625,61.375 s1.0234375-0.1953125,1.4140625-0.5859375l6.3710938-6.3710938l2.28125,4.5625L36.0859375,73.5859375 C35.7109375,73.9609375,35.5,74.4697266,35.5,75v18.75c0,1.1044922,0.8955078,2,2,2s2-0.8955078,2-2V75.828125l13.625-13.625 l14.2109375,14.2109375C67.7109375,76.7890625,68.2197266,77,68.75,77H87.5c1.1044922,0,2-0.8955078,2-2S88.6044922,73,87.5,73z M37.5,14.5c4.0664063,0,7.375,3.3085938,7.375,7.375S41.5664063,29.25,37.5,29.25s-7.375-3.3085938-7.375-7.375 S33.4335938,14.5,37.5,14.5z M47.9257813,44.5039063L50.296875,46.875l-0.7903442,0.7903442L47.9257813,44.5039063z"/> </g> </g>
</svg>